<svg width="68" height="80" viewBox="0 0 68 80" fill="none" xmlns="http://www.w3.org/2000/svg">
<path d="M34 30C37.9783 30 41.7936 28.4196 44.6066 25.6066C47.4197 22.7936 49 18.9782 49 15C49 11.0218 47.4197 7.20644 44.6066 4.3934C41.7936 1.58035 37.9783 0 34 0C30.0218 0 26.2065 1.58035 23.3934 4.3934C20.5804 7.20644 19 11.0218 19 15C19 18.9782 20.5804 22.7936 23.3934 25.6066C26.2065 28.4196 30.0218 30 34 30ZM1.32504 62.47C0.863258 63.7093 0.813303 65.0645 1.18258 66.3345C1.55186 67.6044 2.3207 68.7215 3.37504 69.52C12.1316 76.326 22.9095 80.0142 34 80C45.55 80 56.19 76.08 64.655 69.5C66.805 67.835 67.675 64.985 66.695 62.45C64.1562 55.8401 59.6728 50.1554 53.8366 46.1461C48.0003 42.1368 41.0856 39.9914 34.0049 39.9931C26.9242 39.9947 20.0104 42.1433 14.176 46.1552C8.34161 50.1672 3.86083 55.854 1.32504 62.465" fill="#6B7280"/>
</svg>
